<svg xmlns="http://www.w3.org/2000/svg" width="155" height="64" viewBox="0 0 155 64"><g><g><path fill="#68b0c9" d="M11.873 13.98l-1.72 1.01L7.11 9.905a5.014 5.014 0 0 1-3.25.32C1.17 9.587-.5 6.91.13 4.24.76 1.573 3.453-.074 6.144.561c2.692.637 4.362 3.315 3.732 5.983a4.908 4.908 0 0 1-1.147 2.18zm2.345 3.595l3.654 5.947-1.708 1.029-3.654-5.947zm6.66 9.892l4.133 5.63-1.616 1.166-4.134-5.63zm8.605 9.53l4.963 4.928-1.414 1.402-4.962-4.928zm9.682 9.794l5.587 4.217-1.208 1.58-5.587-4.217zm11.107 7.265l6.258 3.151-.9 1.771-6.258-3.152zm28.88 6.964l7.003.219-.055 1.985-7.004-.219zm12.292.191l6.991-.431.132 1.982-6.991.432zm13.993-2.544l6.939-.936.277 1.968-6.94.937zm13.258-3.416l6.692-2.035.594 1.9-6.692 2.035zm11.408-3.867l6.26-3.1.899 1.778-6.26 3.1zm10.678-5.323l9.627-7.209-9.894-.837.165-1.978 11.876 1.003.24-.76 1.798.882-.388 1.226.045.07-.088.066-3.627 11.49-1.797-.882 2.706-8.572-9.598 7.187zM2.079 4.702c-.378 1.6.624 3.208 2.239 3.59 1.615.38 3.23-.607 3.609-2.208.378-1.601-.625-3.208-2.24-3.59-1.614-.381-3.23.607-3.608 2.208zm61.178 54.226l7.933 1.285-.055 1.986-7.933-1.285z"/></g></g></svg>