<svg xmlns="http://www.w3.org/2000/svg" width="199" height="52" viewBox="0 0 199 52"><g><g><path fill="#68b0c9" d="M185.332 40.258l1.442-1.378 4.13 4.25A4.999 4.999 0 0 1 194 42.061c2.761 0 5 2.225 5 4.969S196.76 52 194 52s-5-2.225-5-4.969c0-.86.22-1.67.607-2.375zm-3.11-2.959l-4.923-4.947 1.426-1.394 4.923 4.946zm-8.755-8.096l-5.317-4.528 1.305-1.507 5.317 4.529zM162.9 21.907l-5.962-3.654 1.053-1.689 5.962 3.654zm-11.674-7.304l-6.407-2.819.812-1.815 6.407 2.819zM138.583 9.1l-6.815-1.629.47-1.93 6.814 1.629zM124.716 4.83l-6.938-.994.287-1.965 6.937.994zM108.75 2.715l-6.972-.726.21-1.975 6.971.726zm-12.84-.57l-6.998.42-.12-1.981 6.996-.42zm-14.947 1.49L74.09 5.012l-.396-1.946 6.872-1.375zM67.944 6.604L61.078 8l-.403-1.945 6.867-1.397zm-12.007 2.64l-6.705 2.028-.584-1.9 6.705-2.027zm-13.033 5.694l-6.538 2.507-.722-1.852 6.538-2.507zM30.787 21.31l-6.045 3.52-1.014-1.712 6.044-3.52zm-10.212 6.388l-5.379 4.456-1.284-1.523 5.378-4.457zm-9.168 7.636l-7.714 9.233 8.837-1.302.294 1.964-10.672 1.572-.188.814-1.952-.445.26-1.12-.225-.22.382-.458 2.051-8.845 1.952.445-1.159 4.996 6.71-8.03zM191 47.031c0 1.64 1.343 2.969 3 2.969s3-1.33 3-2.969c0-1.64-1.343-2.969-3-2.969s-3 1.33-3 2.969z"/></g></g></svg>