<svg xmlns="http://www.w3.org/2000/svg"
 xmlns:xlink="http://www.w3.org/1999/xlink"
 width="84px" height="44px"  viewBox="0 0 84 44">
<path fill-rule="evenodd"  fill="#5ea5bd"
 d="M5.2385254,35.29834 C7.1711426,35.33545 8.707764,36.93213 8.670898,38.864746 C8.633789,40.796875 7.0371094,42.333984 5.10437,42.296875 C3.171875,42.259766 1.6351318,40.663086 1.6721191,38.73047 C1.7092285,36.79785 3.3059082,35.26123 5.2385254,35.29834 ZM5.2001953,37.29785 C6.0285645,37.313965 6.6870117,37.998047 6.6712646,38.82617 C6.6552734,39.654297 5.9709473,40.313477 5.1427,40.297363 C4.314453,40.28125 3.6558838,39.59668 3.671753,38.769043 C3.687622,37.94043 4.371826,37.28174 5.2001953,37.29785 ZM78.89551,1.7026367 C80.828125,1.7397461 82.36487,3.3364258 82.32776,5.269043 C82.29077,7.2021484 80.69397,8.738281 78.761475,8.70166 C76.828735,8.664551 75.29199,7.067871 75.3291,5.135254 C75.36609,3.2026367 76.96277,1.6655273 78.89551,1.7026367 ZM78.857056,3.7021484 C79.685425,3.7182617 80.343994,4.4023438 80.328125,5.230957 C80.31238,6.059082 79.62793,6.7177734 78.79968,6.70166 C77.971436,6.686035 77.31287,6.001953 77.328735,5.17334 C77.34448,4.345215 78.02893,3.6865234 78.857056,3.7021484 ZM6.643799,35.895508 C6.643799,35.895508 13.809814,33.160645 13.809814,33.160645 C13.809814,33.160645 14.522949,35.029297 14.522949,35.029297 C14.522949,35.029297 7.3568115,37.76367 7.3568115,37.76367 C7.3568115,37.76367 6.643799,35.895508 6.643799,35.895508 ZM15.737915,31.068848 C15.737915,31.068848 22.90393,28.333984 22.90393,28.333984 C22.90393,28.333984 23.617065,30.202637 23.617065,30.202637 C23.617065,30.202637 16.450928,32.93701 16.450928,32.93701 C16.450928,32.93701 15.737915,31.068848 15.737915,31.068848 ZM25.831787,26.26123 C25.831787,26.26123 32.997925,23.526367 32.997925,23.526367 C32.997925,23.526367 33.710938,25.39502 33.710938,25.39502 C33.710938,25.39502 26.544922,28.129395 26.544922,28.129395 C26.544922,28.129395 25.831787,26.26123 25.831787,26.26123 ZM35.92578,21.453613 C35.92578,21.453613 43.091797,18.71875 43.091797,18.71875 C43.091797,18.71875 43.80493,20.587402 43.80493,20.587402 C43.80493,20.587402 36.638794,23.321777 36.638794,23.321777 C36.638794,23.321777 35.92578,21.453613 35.92578,21.453613 ZM47.01953,16.66504 C47.01953,16.66504 54.185547,13.930664 54.185547,13.930664 C54.185547,13.930664 54.89856,15.798828 54.89856,15.798828 C54.89856,15.798828 47.732666,18.533691 47.732666,18.533691 C47.732666,18.533691 47.01953,16.66504 47.01953,16.66504 ZM58.11328,11.876465 C58.11328,11.876465 65.2793,9.14209 65.2793,9.14209 C65.2793,9.14209 65.99231,11.010742 65.99231,11.010742 C65.99231,11.010742 58.826416,13.745605 58.826416,13.745605 C58.826416,13.745605 58.11328,11.876465 58.11328,11.876465 ZM69.20703,7.088379 C69.20703,7.088379 76.37305,4.3535156 76.37305,4.3535156 C76.37305,4.3535156 77.08618,6.222168 77.08618,6.222168 C77.08618,6.222168 69.920044,8.957031 69.920044,8.957031 C69.920044,8.957031 69.20703,7.088379 69.20703,7.088379 Z"/>
</svg>