<svg xmlns="http://www.w3.org/2000/svg" width="122" height="109" viewBox="0 0 122 109"><g><g><path fill="#68b0c9" d="M117.5 100a4.5 4.5 0 1 1-3.745 6.996v.012l-11.736-.594.227-3.423 10.856.55A4.502 4.502 0 0 1 117.5 100zm-2.5 4.5a2.5 2.5 0 1 0 5 0 2.5 2.5 0 0 0-5 0zM4.5 0A4.5 4.5 0 0 1 6 8.744V17H3V8.744A4.502 4.502 0 0 1 4.5 0zM2 4.5a2.5 2.5 0 1 0 5 0 2.5 2.5 0 0 0-5 0zm1.074 16.924l2.931-.64 1.92 8.792-2.93.64zm3 12l2.931-.64 1.92 8.792-2.93.64zm3.174 12.623l2.723-1.261 3.78 8.167-2.722 1.26zm6.556 11.48l2.523-1.623 4.869 7.57-2.524 1.622zm7.704 12.411l2.335-1.883 5.649 7.007-2.336 1.883zm9.713 10.514l2.085-2.158 6.472 6.254-2.084 2.158zm10.637 9.071l1.514-2.59 7.77 4.543-1.514 2.59zm11.902 6.793l1.058-2.807 8.422 3.175-1.059 2.807zm16.038 6.81l.565-2.947 8.839 1.695-.565 2.946zm15.074 2.413l.302-2.984 8.954.905-.302 2.985z"/></g></g></svg>