<svg xmlns="http://www.w3.org/2000/svg" width="82" height="42" viewBox="0 0 82 42"><g><g><path fill="#5ea5bd" d="M4.239 34.298a3.484 3.484 0 0 1 1.707.482l6.864-2.62.713 1.87-6.152 2.347a3.5 3.5 0 1 1-3.133-2.079zm-1.567 3.47a1.5 1.5 0 1 0 3 .058 1.5 1.5 0 0 0-3-.057zM77.895.704a3.5 3.5 0 1 1-3.204 5.052l-5.77 2.202-.714-1.869 6.152-2.347A3.5 3.5 0 0 1 77.895.703zm-1.566 3.47a1.5 1.5 0 1 0 3 .058 1.5 1.5 0 0 0-3-.058zM14.738 30.07l7.166-2.735.713 1.869-7.166 2.734zm10.094-4.808l7.166-2.734.713 1.868-7.166 2.735zm10.094-4.808l7.166-2.734.713 1.868-7.166 2.735zm11.094-4.788l7.166-2.734.713 1.868-7.166 2.735zm11.093-4.788l7.166-2.735.713 1.869-7.166 2.734z"/></g></g></svg>