<svg xmlns="http://www.w3.org/2000/svg" width="22" height="20" viewBox="0 0 22 20"><g><g><path fill="#68b0c9" d="M2 11s-1.976.539-2-3c-.025-3.598 4-3 4-3h2S3.1 4.603 3 3C2.868.909 5.188.087 6 0c3.083-.33 3.937 3 3.937 3l2.036.006S14.343.019 16 0c1.848-.022 2.969.806 3.062 3.297C19.112 4.659 17 5 17 5h3s1.979.118 2 3c.017 2.336-2 3-2 3v9H2zm2 7h5v-6H4zm9-6v6h5v-6zM3 7s-1.095.136-1 2c.057 1.116 1 1 1 1h6V7zm10 0v3h6s.925.105 1-1c.14-2.073-1-2-1-2zM8 2c-.688-.875-2.938-.344-3 1-.063 1.343 4 1 4 1s-.313-1.125-1-2zm9 2c1.219-.563.344-1.907-1-2-1.344-.094-3 2-3 2s2.781.562 4 0z"/></g></g></svg>