<svg xmlns="http://www.w3.org/2000/svg" width="199" height="53" viewBox="0 0 199 53"><g><g><path fill="#68b0c9" d="M12.208 39.785l1.44 1.388-4.262 4.424a5 5 0 1 1-1.3-1.532zm3.122-2.997l4.917-4.982 1.423 1.405-4.917 4.982zm8.863-8.267l5.31-4.56 1.304 1.517-5.31 4.56zm10.804-7.532l5.954-3.68 1.052 1.7-5.954 3.681zm11.898-7.484l6.399-2.84.81 1.829-6.398 2.839zm12.968-5.657l6.805-1.64.469 1.943-6.805 1.64zm14.03-4.338l6.928-1 .286 1.979-6.928 1zm16.022-2.14l6.961-.73.21 1.988-6.962.732zm13.152-.58l6.987.423-.12 1.996-6.988-.423zm15.2 1.537l6.862 1.385-.396 1.96-6.862-1.385zm13.006 2.99l6.857 1.407-.403 1.959-6.857-1.408zm12.171 2.704l6.695 2.043-.583 1.913-6.696-2.043zm13.152 5.783l6.529 2.525-.721 1.866-6.53-2.525zm12.393 6.56l6.035 3.546-1.013 1.724-6.035-3.545zm10.467 6.623l5.37 4.49-1.282 1.534-5.37-4.489zm9.294 7.82l6.7 8.089-1.157-5.033 1.95-.448 2.048 8.91.38.46-.224.222.26 1.128-1.95.449-.188-.82-10.656-1.584.294-1.978 8.824 1.311-7.703-9.3zM2 48a3 3 0 1 0 6 0 3 3 0 0 0-6 0z"/></g></g></svg>