<svg xmlns="http://www.w3.org/2000/svg" width="65" height="105" viewBox="0 0 65 105"><g><g><path fill="#68b0c9" d="M4.5 0a4.502 4.502 0 0 1 4.244 3H15v2H8.973A4.5 4.5 0 1 1 4.5 0zM2 4.5a2.5 2.5 0 1 0 5 0 2.5 2.5 0 0 0-5 0zm16.164-1.956l6.938.929-.266 1.982-6.938-.928zm11.412 2.288l6.552 2.464-.704 1.872-6.552-2.464zm9.459 4.49l5.973 3.65-1.043 1.706-5.973-3.65zm8.742 5.471l4.88 5.02-1.434 1.393-4.88-5.019zm6.605 7.743l3.898 5.814-1.662 1.114-3.898-5.815zm6.266 10.827l1.648 6.803-1.944.471-1.648-6.803zm4.024 11.19l-.346 6.992-1.998-.099.346-6.991zm-.51 11.208L62.8 62.628l-1.961-.39 1.36-6.866zm-3.277 11.49l-2.958 6.343-1.812-.845 2.958-6.344zm-5.504 9.524L51.23 82.41l-1.61-1.186 4.15-5.636zm-7.587 9.675l-5.272 4.606-1.316-1.506 5.272-4.606zm-10.682 7.096l-6.439 2.747-.785-1.84 6.439-2.746zm-11.014 4.008l-6.945.876-.25-1.984 6.944-.876zm-11.11 1.439l-9.481-.034 7.868 4.272-.942 1.695L1.01 98.724l.42-.757-.385-.716 11.387-6.27.92 1.707-7.866 4.332 9.527.033z"/></g></g></svg>