<svg xmlns="http://www.w3.org/2000/svg" width="144" height="54" viewBox="0 0 144 54"><g><g><path fill="#68b0c9" d="M142.464 46.808a4.125 4.125 0 0 1-.766 5.77 4.092 4.092 0 0 1-5.752-.753 4.125 4.125 0 0 1 .129-5.161l-6.413-7.562 2.353-2.072 6.932 8.174-.009.007a4.083 4.083 0 0 1 3.526 1.597zm-5.07 3.902a2.273 2.273 0 0 0 3.196.418c1-.77 1.19-2.204.425-3.205a2.274 2.274 0 0 0-3.195-.418c-1 .77-1.19 2.204-.426 3.205zM1.694 19.904a4.096 4.096 0 0 1 4.736-.192l5.979-4.602 1.662 2.175-5.98 4.602a4.13 4.13 0 0 1-1.41 4.54 4.092 4.092 0 0 1-5.753-.753 4.125 4.125 0 0 1 .767-5.77zm.683 4.655a2.274 2.274 0 0 0 3.195.418c1-.77 1.19-2.205.426-3.205a2.273 2.273 0 0 0-3.196-.419c-1 .77-1.19 2.205-.425 3.206zm20.708-15.37l1.16 2.48-7.431 3.51-1.16-2.48zm10.353-4.515l1.16 2.481-7.432 3.51-1.16-2.482zm11.477-3.039l.596 2.676-8.01 1.812-.595-2.676zm12.115-.527l.223 2.733-8.179.692-.223-2.734zM70.31.652l-.069 2.742-8.203-.188.07-2.742zm12.907 2.196l-.408 2.713-8.114-1.205.408-2.713zm11.941 4.545l-1.037 2.541-7.593-3.098 1.037-2.541zm10.883 6.074l-1.446 2.332-6.965-4.333 1.447-2.332zm12.976 8.955l-1.821 2.052-6.124-5.46 1.82-2.053zm9.59 10.103l-1.994 1.882-5.616-5.984 1.994-1.883z"/></g></g></svg>