<svg xmlns="http://www.w3.org/2000/svg" width="81" height="41" viewBox="0 0 81 41"><g><g><path fill="#939393" d="M81.015 37.023a3.506 3.506 0 0 1-3.448 3.565 3.508 3.508 0 0 1-3.583-3.43 3.47 3.47 0 0 1 .301-1.487l-6.18-2.347.716-1.867 6.896 2.618a3.514 3.514 0 0 1 1.715-.482 3.508 3.508 0 0 1 3.583 3.43zm-3.544-1.432c-.832.016-1.494.7-1.478 1.528a1.503 1.503 0 0 0 1.535 1.47 1.502 1.502 0 0 0 1.478-1.527 1.504 1.504 0 0 0-1.535-1.47zM3.564 7.011A3.508 3.508 0 0 1-.019 3.58 3.506 3.506 0 0 1 3.43.015a3.511 3.511 0 0 1 3.553 3.037l6.18 2.346-.716 1.868L6.65 5.065A3.518 3.518 0 0 1 3.564 7.01zm-.096-4.997c-.832.016-1.494.7-1.478 1.528a1.503 1.503 0 0 0 1.536 1.47 1.503 1.503 0 0 0 1.478-1.528 1.504 1.504 0 0 0-1.536-1.47zm62.7 29.22l-7.2-2.734.716-1.867 7.2 2.733zm-10.142-4.806l-7.2-2.733.717-1.867 7.2 2.733zm-10.141-4.805l-7.2-2.733.716-1.867 7.2 2.732zm-11.146-4.786l-7.2-2.733.717-1.868 7.2 2.734zm-11.146-4.786l-7.2-2.733.717-1.867 7.2 2.733z"/></g></g></svg>