<svg xmlns="http://www.w3.org/2000/svg" width="24" height="32" viewBox="0 0 24 32"><g><g><path d="M12 0c6.627 0 12 5.372 12 12 0 6.627-12 20-12 20S0 18.626 0 12C0 5.372 5.373 0 12 0zM2 12.5C2 18.299 12 29 12 29s10-10.701 10-16.5C22 6.7 17.523 2 12 2S2 6.7 2 12.5zM12 5a7 7 0 1 1 0 14 7 7 0 0 1 0-14zm-5 7a5 5 0 1 0 10 0 5 5 0 0 0-10 0z"/><path fill="#68b0c9" d="M12 0c6.627 0 12 5.372 12 12 0 6.627-12 20-12 20S0 18.626 0 12C0 5.372 5.373 0 12 0zM2 12.5C2 18.299 12 29 12 29s10-10.701 10-16.5C22 6.7 17.523 2 12 2S2 6.7 2 12.5zM12 5a7 7 0 1 1 0 14 7 7 0 0 1 0-14zm-5 7a5 5 0 1 0 10 0 5 5 0 0 0-10 0z"/></g></g></svg>